<svg xmlns="http://www.w3.org/2000/svg" viewBox="0 0 220 90" shape-rendering="crispEdges">
  <rect width="220" height="90" fill="none"/>
  <g transform="translate(0 27)">
    <rect x="0" y="0" width="86" height="7" fill="#ff2f68"/>
    <rect x="0" y="7" width="86" height="7" fill="#ff9f1c"/>
    <rect x="0" y="14" width="86" height="7" fill="#ffe14d"/>
    <rect x="0" y="21" width="86" height="7" fill="#45e66b"/>
    <rect x="0" y="28" width="86" height="7" fill="#2fd8ff"/>
    <rect x="0" y="35" width="86" height="7" fill="#8d5cff"/>
    <rect x="0" y="42" width="86" height="7" fill="#ff4fa3"/>
  </g>
  <g transform="translate(70 8)">
    <rect x="0" y="22" width="22" height="36" fill="#ff9bc4"/>
    <rect x="7" y="15" width="29" height="50" fill="#ff9bc4"/>
    <rect x="22" y="8" width="36" height="57" fill="#ff9bc4"/>
    <rect x="8" y="8" width="22" height="7" fill="#f6a5c8"/>
    <rect x="22" y="1" width="29" height="7" fill="#ff9bc4"/>
    <rect x="51" y="15" width="8" height="43" fill="#e64d82"/>
    <rect x="59" y="22" width="8" height="29" fill="#e64d82"/>
    <rect x="8" y="15" width="8" height="8" fill="#ffd5e5"/>
  </g>
  <g transform="translate(119 22)">
    <rect x="0" y="22" width="52" height="30" fill="#b8b6c9"/>
    <rect x="8" y="14" width="36" height="38" fill="#b8b6c9"/>
    <rect x="15" y="7" width="22" height="45" fill="#b8b6c9"/>
    <rect x="8" y="7" width="8" height="8" fill="#b8b6c9"/>
    <rect x="37" y="7" width="8" height="8" fill="#b8b6c9"/>
    <rect x="15" y="22" width="7" height="7" fill="#151225"/>
    <rect x="34" y="22" width="7" height="7" fill="#151225"/>
    <rect x="25" y="31" width="7" height="5" fill="#ff4fa3"/>
    <rect x="7" y="51" width="12" height="10" fill="#151225"/>
    <rect x="34" y="51" width="12" height="10" fill="#151225"/>
  </g>
</svg>
